<svg xmlns="http://www.w3.org/2000/svg" xmlns:xlink="http://www.w3.org/1999/xlink" width="50" zoomAndPan="magnify" viewBox="0 0 37.5 37.499999" height="50" preserveAspectRatio="xMidYMid meet" version="1.2"><defs><clipPath id="a98c58f9b5"><path d="M 8.53125 13 L 17 13 L 17 19 L 8.53125 19 Z M 8.53125 13 "/></clipPath><clipPath id="f599f90c51"><path d="M 19 3.699219 L 28.511719 3.699219 L 28.511719 33.304688 L 19 33.304688 Z M 19 3.699219 "/></clipPath></defs><g id="4f24bd1a19"><path style=" stroke:none;fill-rule:nonzero;fill:#ffffff;fill-opacity:1;" d="M 14.597656 20.691406 L 13.320312 20.058594 C 13.105469 19.953125 13.019531 19.691406 13.125 19.480469 L 13.816406 18.078125 C 13.683594 18.078125 13.558594 18.050781 13.4375 17.996094 L 13.234375 17.90625 L 9.953125 18.929688 L 9.652344 20.425781 C 9.644531 20.460938 9.640625 20.492188 9.640625 20.527344 C 9.628906 20.589844 9.621094 20.65625 9.621094 20.722656 L 9.621094 29.894531 C 9.621094 30.515625 10.121094 31.015625 10.742188 31.015625 C 11.359375 31.015625 11.863281 30.515625 11.863281 29.894531 L 11.863281 21.585938 L 12.28125 21.671875 L 12.28125 29.894531 C 12.28125 30.515625 12.785156 31.015625 13.402344 31.015625 C 14.019531 31.015625 14.523438 30.515625 14.523438 29.894531 L 14.523438 21.066406 Z M 14.597656 20.691406 "/><path style=" stroke:none;fill-rule:nonzero;fill:#ffffff;fill-opacity:1;" d="M 11.929688 11.242188 C 11.707031 12.34375 12.421875 13.421875 13.523438 13.644531 C 14.628906 13.867188 15.703125 13.152344 15.929688 12.050781 C 16.152344 10.945312 15.4375 9.871094 14.332031 9.648438 C 13.230469 9.421875 12.152344 10.136719 11.929688 11.242188 Z M 15.222656 11.3125 C 15.386719 11.3125 15.519531 11.449219 15.519531 11.613281 C 15.519531 11.777344 15.386719 11.914062 15.222656 11.914062 C 15.054688 11.914062 14.921875 11.777344 14.921875 11.613281 C 14.921875 11.449219 15.054688 11.3125 15.222656 11.3125 Z M 14.160156 11.613281 C 14.160156 11.777344 14.023438 11.914062 13.859375 11.914062 C 13.695312 11.914062 13.558594 11.777344 13.558594 11.613281 C 13.558594 11.449219 13.695312 11.3125 13.859375 11.3125 C 14.023438 11.3125 14.160156 11.449219 14.160156 11.613281 Z M 14.160156 11.613281 "/><g clip-rule="nonzero" clip-path="url(#a98c58f9b5)"><path style=" stroke:none;fill-rule:nonzero;fill:#ffffff;fill-opacity:1;" d="M 8.605469 17.945312 C 8.527344 18.203125 8.601562 18.480469 8.789062 18.671875 C 8.929688 18.808594 9.113281 18.878906 9.300781 18.878906 C 9.371094 18.878906 9.445312 18.871094 9.515625 18.847656 L 13.246094 17.683594 L 13.523438 17.804688 C 13.652344 17.863281 13.792969 17.878906 13.921875 17.863281 L 14.453125 16.792969 C 14.378906 16.660156 14.265625 16.550781 14.117188 16.484375 L 13.589844 16.246094 C 13.429688 16.175781 13.246094 16.164062 13.078125 16.214844 L 10.484375 17.023438 C 10.71875 16.492188 10.972656 16.003906 11.214844 15.660156 L 11.40625 15.753906 C 11.246094 15.972656 11.0625 16.28125 10.867188 16.6875 L 13.015625 16.015625 C 13.105469 15.988281 13.199219 15.972656 13.292969 15.972656 C 13.425781 15.972656 13.554688 16.003906 13.675781 16.058594 L 13.855469 16.136719 L 13.359375 15.277344 L 13.585938 15.144531 L 14.269531 16.328125 C 14.382812 16.390625 14.480469 16.476562 14.558594 16.574219 L 15.011719 15.660156 C 15.085938 15.511719 15.238281 15.417969 15.402344 15.417969 C 15.46875 15.417969 15.53125 15.433594 15.589844 15.464844 L 16.175781 15.75 C 16.015625 15.34375 15.8125 14.976562 15.546875 14.710938 C 15.457031 14.621094 15.351562 14.558594 15.238281 14.527344 C 15.207031 14.515625 15.171875 14.503906 15.136719 14.496094 L 11.707031 13.804688 C 11.65625 13.792969 11.609375 13.789062 11.5625 13.789062 C 11.4375 13.769531 11.304688 13.777344 11.175781 13.828125 C 10.734375 14.003906 10.316406 14.394531 9.910156 15.007812 C 9.691406 15.339844 9.476562 15.738281 9.265625 16.207031 C 8.863281 17.09375 8.617188 17.914062 8.605469 17.945312 Z M 8.605469 17.945312 "/></g><path style=" stroke:none;fill-rule:nonzero;fill:#ffffff;fill-opacity:1;" d="M 13.3125 19.570312 C 13.253906 19.683594 13.300781 19.816406 13.414062 19.871094 L 16.285156 21.289062 C 16.394531 21.34375 16.53125 21.300781 16.585938 21.1875 L 16.992188 20.367188 L 16.738281 20.269531 C 16.507812 20.175781 16.324219 20 16.226562 19.773438 C 16.125 19.542969 16.121094 19.289062 16.210938 19.058594 C 16.335938 18.742188 16.621094 18.519531 16.957031 18.472656 C 17.113281 18.453125 17.273438 18.472656 17.421875 18.53125 L 17.820312 18.6875 L 18.472656 17.371094 C 18.527344 17.257812 18.480469 17.125 18.371094 17.070312 L 15.5 15.648438 C 15.386719 15.59375 15.253906 15.640625 15.199219 15.75 Z M 16.039062 16.175781 L 17.625 16.957031 L 17.324219 17.5625 L 15.742188 16.78125 Z M 16.039062 16.175781 "/><path style=" stroke:none;fill-rule:nonzero;fill:#ffffff;fill-opacity:1;" d="M 16.230469 16.40625 C 16.1875 16.382812 16.128906 16.402344 16.105469 16.445312 C 16.082031 16.492188 16.101562 16.550781 16.148438 16.570312 C 16.195312 16.59375 16.25 16.574219 16.273438 16.53125 C 16.296875 16.484375 16.277344 16.425781 16.230469 16.40625 Z M 16.230469 16.40625 "/><path style=" stroke:none;fill-rule:nonzero;fill:#ffffff;fill-opacity:1;" d="M 17.242188 17.113281 C 17.289062 17.136719 17.34375 17.117188 17.367188 17.070312 C 17.390625 17.023438 17.371094 16.96875 17.324219 16.945312 C 17.277344 16.921875 17.222656 16.941406 17.199219 16.988281 C 17.175781 17.035156 17.195312 17.089844 17.242188 17.113281 Z M 17.242188 17.113281 "/><path style=" stroke:none;fill-rule:nonzero;fill:#ffffff;fill-opacity:1;" d="M 17.347656 18.726562 C 16.972656 18.578125 16.550781 18.761719 16.40625 19.136719 C 16.261719 19.507812 16.445312 19.929688 16.816406 20.074219 L 17.332031 20.277344 C 17.703125 20.421875 18.234375 19.074219 17.863281 18.925781 Z M 17.347656 18.726562 "/><path style=" stroke:none;fill-rule:nonzero;fill:#ffffff;fill-opacity:1;" d="M 23.777344 14.527344 C 23.664062 14.558594 23.558594 14.621094 23.46875 14.710938 C 23.207031 14.976562 23 15.34375 22.839844 15.75 L 23.425781 15.464844 C 23.484375 15.433594 23.546875 15.417969 23.613281 15.417969 C 23.777344 15.417969 23.933594 15.511719 24.003906 15.660156 L 24.457031 16.574219 C 24.535156 16.476562 24.632812 16.390625 24.746094 16.328125 L 25.429688 15.144531 L 25.65625 15.277344 L 25.160156 16.136719 L 25.339844 16.058594 C 25.460938 16.003906 25.589844 15.972656 25.722656 15.972656 C 25.816406 15.972656 25.910156 15.988281 26 16.015625 L 26.75 16.25 L 26.75 13.917969 L 23.878906 14.496094 C 23.84375 14.503906 23.808594 14.515625 23.777344 14.527344 Z M 23.777344 14.527344 "/><path style=" stroke:none;fill-rule:nonzero;fill:#ffffff;fill-opacity:1;" d="M 24.683594 9.648438 C 23.578125 9.871094 22.863281 10.945312 23.089844 12.050781 C 23.3125 13.152344 24.386719 13.867188 25.492188 13.644531 C 26.019531 13.535156 26.460938 13.234375 26.75 12.824219 L 26.75 10.464844 C 26.296875 9.828125 25.496094 9.480469 24.683594 9.648438 Z M 23.796875 11.914062 C 23.628906 11.914062 23.496094 11.777344 23.496094 11.613281 C 23.496094 11.449219 23.628906 11.3125 23.796875 11.3125 C 23.960938 11.3125 24.09375 11.449219 24.09375 11.613281 C 24.09375 11.777344 23.960938 11.914062 23.796875 11.914062 Z M 25.15625 11.914062 C 24.992188 11.914062 24.859375 11.777344 24.859375 11.613281 C 24.859375 11.449219 24.992188 11.3125 25.15625 11.3125 C 25.320312 11.3125 25.457031 11.449219 25.457031 11.613281 C 25.457031 11.777344 25.320312 11.914062 25.15625 11.914062 Z M 25.15625 11.914062 "/><path style=" stroke:none;fill-rule:nonzero;fill:#ffffff;fill-opacity:1;" d="M 24.492188 29.894531 C 24.492188 29.976562 24.503906 30.054688 24.519531 30.132812 L 26.050781 30.929688 C 26.453125 30.757812 26.734375 30.359375 26.734375 29.894531 L 26.734375 21.671875 L 26.75 21.667969 L 26.75 18.207031 L 25.78125 17.90625 L 25.578125 17.996094 C 25.457031 18.050781 25.332031 18.078125 25.199219 18.078125 L 25.890625 19.480469 C 25.996094 19.691406 25.910156 19.953125 25.695312 20.058594 L 24.417969 20.691406 L 24.492188 21.066406 Z M 24.492188 29.894531 "/><path style=" stroke:none;fill-rule:nonzero;fill:#ffffff;fill-opacity:1;" d="M 25.425781 16.246094 L 24.898438 16.484375 C 24.75 16.550781 24.636719 16.660156 24.5625 16.792969 L 25.09375 17.863281 C 25.226562 17.878906 25.363281 17.863281 25.492188 17.804688 L 25.769531 17.683594 L 26.75 17.988281 L 26.75 16.46875 L 25.9375 16.214844 C 25.769531 16.164062 25.585938 16.175781 25.425781 16.246094 Z M 25.425781 16.246094 "/><path style=" stroke:none;fill-rule:nonzero;fill:#ffffff;fill-opacity:1;" d="M 22.730469 21.289062 L 25.601562 19.871094 C 25.714844 19.816406 25.761719 19.683594 25.707031 19.570312 L 23.816406 15.75 C 23.761719 15.640625 23.628906 15.59375 23.515625 15.648438 L 20.644531 17.070312 C 20.535156 17.125 20.488281 17.257812 20.542969 17.371094 L 21.195312 18.6875 L 21.59375 18.53125 C 21.742188 18.472656 21.902344 18.453125 22.058594 18.472656 C 22.394531 18.519531 22.679688 18.742188 22.804688 19.058594 C 22.894531 19.289062 22.890625 19.542969 22.789062 19.773438 C 22.691406 20 22.507812 20.175781 22.277344 20.269531 L 22.027344 20.367188 L 22.429688 21.1875 C 22.488281 21.300781 22.621094 21.34375 22.730469 21.289062 Z M 21.691406 17.5625 L 21.394531 16.957031 L 22.976562 16.175781 L 23.273438 16.78125 Z M 21.691406 17.5625 "/><path style=" stroke:none;fill-rule:nonzero;fill:#ffffff;fill-opacity:1;" d="M 22.785156 16.40625 C 22.738281 16.425781 22.71875 16.484375 22.742188 16.53125 C 22.765625 16.574219 22.820312 16.59375 22.867188 16.570312 C 22.914062 16.550781 22.933594 16.492188 22.910156 16.445312 C 22.886719 16.402344 22.832031 16.382812 22.785156 16.40625 Z M 22.785156 16.40625 "/><path style=" stroke:none;fill-rule:nonzero;fill:#ffffff;fill-opacity:1;" d="M 21.691406 16.945312 C 21.644531 16.96875 21.625 17.023438 21.648438 17.070312 C 21.671875 17.117188 21.726562 17.136719 21.773438 17.113281 C 21.820312 17.089844 21.839844 17.035156 21.816406 16.988281 C 21.792969 16.941406 21.738281 16.921875 21.691406 16.945312 Z M 21.691406 16.945312 "/><path style=" stroke:none;fill-rule:nonzero;fill:#ffffff;fill-opacity:1;" d="M 21.683594 20.277344 L 22.199219 20.074219 C 22.574219 19.929688 22.757812 19.507812 22.609375 19.136719 C 22.464844 18.761719 22.042969 18.578125 21.667969 18.726562 L 21.15625 18.925781 C 20.78125 19.074219 21.3125 20.421875 21.683594 20.277344 Z M 21.683594 20.277344 "/><g clip-rule="nonzero" clip-path="url(#f599f90c51)"><path style=" stroke:none;fill-rule:nonzero;fill:#ffffff;fill-opacity:1;" d="M 19.46875 8.585938 L 19.46875 28.421875 L 19.515625 28.460938 L 27.558594 33.289062 L 27.558594 33.304688 L 28.464844 33.304688 L 28.464844 3.703125 L 27.558594 3.703125 L 27.558594 3.71875 L 19.515625 8.546875 Z M 27.046875 5.121094 L 27.046875 31.886719 L 19.707031 27.933594 L 19.707031 9.078125 Z M 27.046875 5.121094 "/></g><path style=" stroke:none;fill-rule:nonzero;fill:#ffffff;fill-opacity:1;" d="M 21.371094 24.589844 L 22.167969 26.003906 L 22.222656 25.867188 L 21.417969 24.453125 Z M 21.371094 24.589844 "/><path style=" stroke:none;fill-rule:nonzero;fill:#ffffff;fill-opacity:1;" d="M 22.46875 25.242188 L 21.628906 23.847656 L 21.582031 23.988281 L 22.414062 25.386719 Z M 22.46875 25.242188 "/><path style=" stroke:none;fill-rule:nonzero;fill:#ffffff;fill-opacity:1;" d="M 21.085938 23.617188 L 22.785156 26.554688 L 22.84375 26.414062 L 21.128906 23.484375 Z M 21.085938 23.617188 "/><path style=" stroke:none;fill-rule:nonzero;fill:#ffffff;fill-opacity:1;" d="M 20.8125 11.359375 L 21.609375 12.777344 L 21.664062 12.640625 L 20.859375 11.226562 Z M 20.8125 11.359375 "/><path style=" stroke:none;fill-rule:nonzero;fill:#ffffff;fill-opacity:1;" d="M 21.910156 12.015625 L 21.070312 10.617188 L 21.023438 10.757812 L 21.855469 12.15625 Z M 21.910156 12.015625 "/><path style=" stroke:none;fill-rule:nonzero;fill:#ffffff;fill-opacity:1;" d="M 22.285156 13.183594 L 20.570312 10.253906 L 20.527344 10.390625 L 22.226562 13.328125 Z M 22.285156 13.183594 "/></g></svg>