<svg xmlns="http://www.w3.org/2000/svg" xmlns:xlink="http://www.w3.org/1999/xlink" width="50" zoomAndPan="magnify" viewBox="0 0 37.5 37.499999" height="50" preserveAspectRatio="xMidYMid meet" version="1.2"><defs><clipPath id="ef184ae9f3"><path d="M 9.699219 2.421875 L 28.203125 2.421875 L 28.203125 34.246094 L 9.699219 34.246094 Z M 9.699219 2.421875 "/></clipPath><clipPath id="753d915cd9"><path d="M 12.152344 16.007812 L 24.734375 16.007812 L 24.734375 20.449219 L 12.152344 20.449219 Z M 12.152344 16.007812 "/></clipPath><clipPath id="fa97b543f9"><path d="M 19.089844 7.164062 L 26.363281 7.164062 L 26.363281 10 L 19.089844 10 Z M 19.089844 7.164062 "/></clipPath><clipPath id="0c5f2a105d"><path d="M 16.742188 11.101562 L 26.050781 11.101562 L 26.050781 14.800781 L 16.742188 14.800781 Z M 16.742188 11.101562 "/></clipPath><clipPath id="a4f15c4787"><path d="M 15.855469 23.011719 L 24.734375 23.011719 L 24.734375 31.152344 L 15.855469 31.152344 Z M 15.855469 23.011719 "/></clipPath></defs><g id="7c2203364e"><g clip-rule="nonzero" clip-path="url(#ef184ae9f3)"><path style=" stroke:none;fill-rule:nonzero;fill:#ffffff;fill-opacity:1;" d="M 25.558594 30.539062 L 12.347656 30.539062 C 11.851562 30.539062 11.445312 30.132812 11.445312 29.636719 L 11.445312 6.289062 C 11.445312 5.789062 11.851562 5.386719 12.347656 5.386719 L 25.558594 5.386719 C 26.054688 5.386719 26.460938 5.789062 26.460938 6.289062 L 26.460938 29.636719 C 26.460938 30.132812 26.054688 30.539062 25.558594 30.539062 Z M 18.953125 33.636719 C 18.277344 33.636719 17.730469 33.089844 17.730469 32.414062 C 17.730469 31.738281 18.277344 31.191406 18.953125 31.191406 C 19.628906 31.191406 20.175781 31.738281 20.175781 32.414062 C 20.175781 33.089844 19.628906 33.636719 18.953125 33.636719 Z M 16.894531 3.742188 L 21.011719 3.742188 C 21.179688 3.742188 21.316406 3.878906 21.316406 4.046875 C 21.316406 4.214844 21.179688 4.351562 21.011719 4.351562 L 16.894531 4.351562 C 16.726562 4.351562 16.589844 4.214844 16.589844 4.046875 C 16.589844 3.878906 16.726562 3.742188 16.894531 3.742188 Z M 23.027344 3.480469 C 23.339844 3.480469 23.59375 3.734375 23.59375 4.046875 C 23.59375 4.359375 23.339844 4.613281 23.027344 4.613281 C 22.714844 4.613281 22.457031 4.359375 22.457031 4.046875 C 22.457031 3.734375 22.714844 3.480469 23.027344 3.480469 Z M 25.921875 2.433594 L 11.984375 2.433594 C 10.726562 2.433594 9.699219 3.457031 9.699219 4.714844 L 9.699219 31.835938 C 9.699219 33.09375 10.726562 34.117188 11.984375 34.117188 L 25.921875 34.117188 C 27.179688 34.117188 28.207031 33.09375 28.207031 31.835938 L 28.207031 4.714844 C 28.207031 3.457031 27.179688 2.433594 25.921875 2.433594 "/></g><g clip-rule="nonzero" clip-path="url(#753d915cd9)"><path style=" stroke:none;fill-rule:nonzero;fill:#ffffff;fill-opacity:1;" d="M 23.640625 16.109375 L 13.808594 16.109375 C 13.503906 16.109375 13.257812 16.359375 13.257812 16.664062 L 13.257812 18.839844 L 12.304688 19.789062 L 13.257812 19.789062 C 13.257812 20.09375 13.503906 20.34375 13.808594 20.34375 L 23.640625 20.34375 C 23.945312 20.34375 24.195312 20.09375 24.195312 19.789062 L 24.195312 16.664062 C 24.195312 16.359375 23.945312 16.109375 23.640625 16.109375 "/><path style=" stroke:none;fill-rule:nonzero;fill:#ffffff;fill-opacity:1;" d="M 23.640625 16.109375 L 23.640625 16.007812 L 13.808594 16.007812 C 13.445312 16.007812 13.152344 16.300781 13.152344 16.664062 L 13.152344 18.796875 L 12.230469 19.714844 C 12.203125 19.746094 12.191406 19.789062 12.210938 19.828125 C 12.226562 19.867188 12.261719 19.894531 12.304688 19.894531 L 13.257812 19.894531 L 13.257812 19.789062 L 13.152344 19.789062 C 13.152344 19.972656 13.226562 20.136719 13.34375 20.253906 C 13.464844 20.375 13.628906 20.445312 13.808594 20.445312 L 23.640625 20.445312 C 24.003906 20.445312 24.300781 20.152344 24.300781 19.789062 L 24.300781 16.664062 C 24.300781 16.300781 24.003906 16.007812 23.640625 16.007812 L 23.640625 16.214844 C 23.765625 16.214844 23.878906 16.265625 23.957031 16.347656 C 24.039062 16.429688 24.089844 16.539062 24.089844 16.664062 L 24.089844 19.789062 C 24.089844 19.914062 24.039062 20.023438 23.957031 20.105469 C 23.878906 20.1875 23.765625 20.238281 23.640625 20.238281 L 13.808594 20.238281 C 13.6875 20.238281 13.574219 20.1875 13.492188 20.105469 C 13.410156 20.023438 13.363281 19.914062 13.363281 19.789062 C 13.363281 19.761719 13.351562 19.734375 13.332031 19.714844 C 13.3125 19.695312 13.285156 19.683594 13.257812 19.683594 L 12.558594 19.683594 L 13.332031 18.914062 C 13.351562 18.894531 13.363281 18.867188 13.363281 18.839844 L 13.363281 16.664062 C 13.363281 16.539062 13.410156 16.429688 13.492188 16.347656 C 13.574219 16.265625 13.6875 16.214844 13.808594 16.214844 L 23.640625 16.214844 L 23.640625 16.109375 "/></g><g clip-rule="nonzero" clip-path="url(#fa97b543f9)"><path style=" stroke:none;fill-rule:nonzero;fill:#ffffff;fill-opacity:1;" d="M 19.507812 7.226562 L 25.371094 7.226562 C 25.550781 7.226562 25.699219 7.375 25.699219 7.558594 L 25.699219 8.855469 L 26.265625 9.421875 L 25.699219 9.421875 C 25.699219 9.605469 25.550781 9.75 25.371094 9.75 L 19.507812 9.75 C 19.324219 9.75 19.175781 9.605469 19.175781 9.421875 L 19.175781 7.558594 C 19.175781 7.375 19.324219 7.226562 19.507812 7.226562 "/><path style=" stroke:none;fill-rule:nonzero;fill:#ffffff;fill-opacity:1;" d="M 19.507812 7.226562 L 19.507812 7.167969 L 25.371094 7.167969 C 25.585938 7.167969 25.761719 7.339844 25.761719 7.558594 L 25.761719 8.828125 L 26.308594 9.378906 C 26.328125 9.394531 26.332031 9.421875 26.324219 9.445312 C 26.3125 9.46875 26.292969 9.484375 26.265625 9.484375 L 25.699219 9.484375 L 25.699219 9.421875 L 25.761719 9.421875 C 25.761719 9.53125 25.71875 9.628906 25.648438 9.699219 C 25.574219 9.769531 25.476562 9.8125 25.371094 9.8125 L 19.507812 9.8125 C 19.289062 9.8125 19.113281 9.636719 19.113281 9.421875 L 19.113281 7.558594 C 19.113281 7.339844 19.289062 7.167969 19.507812 7.167969 L 19.507812 7.289062 C 19.433594 7.289062 19.367188 7.320312 19.316406 7.367188 C 19.269531 7.417969 19.238281 7.484375 19.238281 7.558594 L 19.238281 9.421875 C 19.238281 9.496094 19.269531 9.5625 19.316406 9.609375 C 19.367188 9.660156 19.433594 9.691406 19.507812 9.691406 L 25.371094 9.691406 C 25.441406 9.691406 25.507812 9.660156 25.558594 9.609375 C 25.605469 9.5625 25.636719 9.496094 25.636719 9.421875 C 25.636719 9.40625 25.644531 9.390625 25.65625 9.378906 C 25.667969 9.367188 25.683594 9.359375 25.699219 9.359375 L 26.117188 9.359375 L 25.65625 8.898438 C 25.644531 8.886719 25.636719 8.871094 25.636719 8.855469 L 25.636719 7.558594 C 25.636719 7.484375 25.605469 7.417969 25.558594 7.367188 C 25.507812 7.320312 25.441406 7.289062 25.371094 7.289062 L 19.507812 7.289062 L 19.507812 7.226562 "/></g><g clip-rule="nonzero" clip-path="url(#0c5f2a105d)"><path style=" stroke:none;fill-rule:nonzero;fill:#ffffff;fill-opacity:1;" d="M 17.292969 11.183594 L 25.054688 11.183594 C 25.296875 11.183594 25.492188 11.378906 25.492188 11.621094 L 25.492188 13.335938 L 26.242188 14.089844 L 25.492188 14.089844 C 25.492188 14.328125 25.296875 14.523438 25.054688 14.523438 L 17.292969 14.523438 C 17.050781 14.523438 16.855469 14.328125 16.855469 14.089844 L 16.855469 11.621094 C 16.855469 11.378906 17.050781 11.183594 17.292969 11.183594 "/><path style=" stroke:none;fill-rule:nonzero;fill:#ffffff;fill-opacity:1;" d="M 17.292969 11.183594 L 17.292969 11.101562 L 25.054688 11.101562 C 25.339844 11.101562 25.574219 11.332031 25.574219 11.621094 L 25.574219 13.304688 L 26.300781 14.03125 C 26.324219 14.054688 26.332031 14.089844 26.316406 14.121094 C 26.304688 14.152344 26.273438 14.171875 26.242188 14.171875 L 25.492188 14.171875 L 25.492188 14.089844 L 25.574219 14.089844 C 25.574219 14.230469 25.515625 14.363281 25.421875 14.453125 C 25.328125 14.546875 25.195312 14.605469 25.054688 14.605469 L 17.292969 14.605469 C 17.003906 14.605469 16.773438 14.375 16.773438 14.089844 L 16.773438 11.621094 C 16.773438 11.332031 17.003906 11.101562 17.292969 11.101562 L 17.292969 11.265625 C 17.195312 11.265625 17.105469 11.304688 17.042969 11.371094 C 16.976562 11.433594 16.9375 11.523438 16.9375 11.621094 L 16.9375 14.089844 C 16.9375 14.1875 16.976562 14.273438 17.042969 14.339844 C 17.105469 14.402344 17.195312 14.441406 17.292969 14.441406 L 25.054688 14.441406 C 25.152344 14.441406 25.238281 14.402344 25.304688 14.339844 C 25.367188 14.273438 25.40625 14.1875 25.40625 14.089844 C 25.40625 14.066406 25.417969 14.046875 25.433594 14.03125 C 25.449219 14.015625 25.46875 14.003906 25.492188 14.003906 L 26.042969 14.003906 L 25.433594 13.394531 C 25.417969 13.378906 25.40625 13.359375 25.40625 13.335938 L 25.40625 11.621094 C 25.40625 11.523438 25.367188 11.433594 25.304688 11.371094 C 25.238281 11.304688 25.152344 11.265625 25.054688 11.265625 L 17.292969 11.265625 L 17.292969 11.183594 "/></g><g clip-rule="nonzero" clip-path="url(#a4f15c4787)"><path style=" stroke:none;fill-rule:evenodd;fill:#ffffff;fill-opacity:1;" d="M 17.761719 27.449219 Z M 17.761719 27.449219 C 17.714844 27.46875 17.664062 27.484375 17.609375 27.503906 L 17.609375 29.011719 C 17.761719 29.09375 17.859375 29.25 17.859375 29.429688 C 17.859375 29.6875 17.652344 29.894531 17.394531 29.894531 C 17.136719 29.894531 16.925781 29.6875 16.925781 29.429688 C 16.925781 29.25 17.027344 29.09375 17.179688 29.011719 L 17.179688 27.632812 C 17.042969 27.667969 16.90625 27.703125 16.800781 27.730469 C 16.527344 27.796875 16.40625 27.820312 16.320312 27.886719 C 16.234375 27.949219 16.183594 28.050781 16.101562 28.332031 C 16.039062 28.554688 15.953125 29.910156 15.867188 30.679688 C 15.855469 30.792969 15.886719 30.898438 15.964844 30.984375 C 16.042969 31.070312 16.140625 31.113281 16.257812 31.113281 C 18.242188 31.113281 20.226562 31.113281 22.210938 31.113281 C 22.324219 31.113281 22.425781 31.070312 22.503906 30.984375 C 22.582031 30.898438 22.613281 30.792969 22.601562 30.679688 C 22.511719 29.910156 22.429688 28.554688 22.363281 28.332031 C 22.28125 28.050781 22.234375 27.949219 22.148438 27.886719 C 22.0625 27.820312 21.941406 27.796875 21.667969 27.730469 C 21.554688 27.699219 21.414062 27.667969 21.273438 27.628906 L 21.269531 27.992188 C 21.269531 28.03125 21.292969 28.0625 21.332031 28.070312 C 21.515625 28.117188 21.6875 28.210938 21.820312 28.347656 C 22.015625 28.542969 22.125 28.804688 22.125 29.082031 L 22.125 29.828125 C 22.125 29.960938 22.074219 30.085938 21.980469 30.179688 C 21.980469 30.179688 21.976562 30.183594 21.976562 30.183594 C 21.902344 30.257812 21.808594 30.304688 21.710938 30.320312 C 21.667969 30.359375 21.613281 30.382812 21.554688 30.382812 L 21.480469 30.382812 C 21.398438 30.382812 21.332031 30.316406 21.332031 30.234375 L 21.332031 30.074219 C 21.332031 29.984375 21.40625 29.910156 21.496094 29.910156 L 21.554688 29.910156 C 21.597656 29.910156 21.640625 29.921875 21.679688 29.949219 C 21.691406 29.941406 21.707031 29.933594 21.71875 29.921875 C 21.742188 29.894531 21.753906 29.863281 21.753906 29.828125 L 21.753906 29.082031 C 21.753906 28.902344 21.683594 28.734375 21.558594 28.609375 C 21.433594 28.484375 21.261719 28.410156 21.085938 28.410156 C 20.90625 28.410156 20.738281 28.484375 20.613281 28.609375 C 20.484375 28.734375 20.414062 28.902344 20.414062 29.082031 L 20.414062 29.828125 C 20.414062 29.863281 20.429688 29.894531 20.453125 29.921875 C 20.464844 29.933594 20.480469 29.941406 20.492188 29.949219 C 20.53125 29.921875 20.574219 29.910156 20.621094 29.910156 L 20.679688 29.910156 C 20.769531 29.910156 20.839844 29.984375 20.839844 30.074219 L 20.839844 30.234375 C 20.839844 30.316406 20.773438 30.382812 20.695312 30.382812 L 20.621094 30.382812 C 20.5625 30.382812 20.507812 30.359375 20.464844 30.324219 C 20.363281 30.304688 20.265625 30.257812 20.191406 30.183594 C 20.097656 30.085938 20.042969 29.960938 20.042969 29.828125 L 20.042969 29.082031 C 20.042969 28.804688 20.152344 28.542969 20.351562 28.347656 C 20.472656 28.222656 20.625 28.132812 20.792969 28.082031 C 20.828125 28.074219 20.851562 28.042969 20.851562 28.007812 L 20.851562 27.566406 C 20.851562 27.546875 20.855469 27.523438 20.859375 27.503906 C 20.804688 27.484375 20.753906 27.46875 20.707031 27.449219 C 20.617188 27.414062 20.542969 27.378906 20.480469 27.347656 L 19.234375 29.160156 L 17.988281 27.351562 C 17.929688 27.378906 17.855469 27.410156 17.761719 27.449219 Z M 20.621094 30.023438 L 20.679688 30.023438 C 20.707031 30.023438 20.726562 30.046875 20.726562 30.074219 L 20.726562 30.234375 C 20.726562 30.253906 20.710938 30.269531 20.695312 30.269531 L 20.621094 30.269531 C 20.582031 30.269531 20.542969 30.246094 20.519531 30.214844 C 20.425781 30.210938 20.335938 30.167969 20.269531 30.101562 C 20.199219 30.03125 20.15625 29.933594 20.15625 29.828125 L 20.15625 29.082031 C 20.15625 28.828125 20.261719 28.59375 20.429688 28.425781 C 20.539062 28.316406 20.675781 28.234375 20.824219 28.191406 C 20.910156 28.167969 20.964844 28.09375 20.964844 28.007812 L 20.964844 27.566406 C 20.964844 27.53125 20.984375 27.496094 21.015625 27.480469 L 21.019531 27.480469 C 21.050781 27.464844 21.082031 27.464844 21.113281 27.484375 C 21.144531 27.5 21.160156 27.53125 21.160156 27.566406 L 21.15625 27.992188 C 21.15625 28.082031 21.214844 28.160156 21.304688 28.179688 C 21.472656 28.222656 21.621094 28.308594 21.742188 28.425781 C 21.910156 28.59375 22.011719 28.828125 22.011719 29.082031 L 22.011719 29.828125 C 22.011719 29.933594 21.96875 30.03125 21.898438 30.101562 C 21.835938 30.164062 21.75 30.207031 21.652344 30.214844 C 21.632812 30.246094 21.59375 30.269531 21.554688 30.269531 L 21.480469 30.269531 C 21.460938 30.269531 21.445312 30.253906 21.445312 30.234375 L 21.445312 30.074219 C 21.445312 30.046875 21.46875 30.023438 21.496094 30.023438 L 21.554688 30.023438 C 21.59375 30.023438 21.628906 30.042969 21.648438 30.070312 C 21.707031 30.066406 21.757812 30.039062 21.796875 30 C 21.839844 29.957031 21.867188 29.894531 21.867188 29.828125 L 21.867188 29.082031 C 21.867188 28.867188 21.78125 28.671875 21.636719 28.527344 C 21.496094 28.386719 21.300781 28.296875 21.085938 28.296875 C 20.871094 28.296875 20.671875 28.386719 20.53125 28.527344 C 20.390625 28.671875 20.300781 28.867188 20.300781 29.082031 L 20.300781 29.828125 C 20.300781 29.894531 20.328125 29.957031 20.371094 30 C 20.414062 30.039062 20.464844 30.066406 20.523438 30.070312 C 20.546875 30.042969 20.582031 30.023438 20.621094 30.023438 Z M 21.085938 28.296875 Z M 24.34375 23.515625 L 21.625 23.515625 C 21.472656 23.515625 21.347656 23.636719 21.347656 23.789062 L 21.347656 25.335938 C 21.347656 25.488281 21.472656 25.613281 21.625 25.613281 L 21.625 26.363281 L 22.4375 25.613281 L 24.34375 25.613281 C 24.496094 25.613281 24.621094 25.488281 24.621094 25.335938 L 24.621094 23.789062 C 24.621094 23.636719 24.496094 23.515625 24.34375 23.515625 Z M 17.949219 25.066406 C 17.84375 24.921875 17.78125 24.707031 17.753906 24.550781 C 17.71875 24.382812 17.707031 24.222656 17.71875 24.046875 C 17.726562 23.894531 17.75 23.746094 17.777344 23.59375 C 17.851562 23.636719 17.925781 23.683594 18.058594 23.613281 C 18.25 23.511719 18.421875 23.332031 18.617188 23.21875 C 18.839844 23.085938 19.09375 23.011719 19.351562 23.023438 C 19.882812 23.050781 20.15625 23.261719 20.257812 23.71875 C 20.375 23.714844 20.492188 23.710938 20.578125 23.847656 C 20.664062 23.988281 20.714844 24.265625 20.695312 24.511719 C 20.675781 24.757812 20.582031 24.96875 20.492188 25.078125 C 20.480469 25.085938 20.46875 25.105469 20.464844 25.113281 C 20.488281 25.113281 20.511719 25.117188 20.53125 25.125 C 20.574219 25.144531 20.617188 25.171875 20.636719 25.230469 C 20.65625 25.285156 20.652344 25.371094 20.644531 25.453125 C 20.640625 25.535156 20.628906 25.617188 20.605469 25.699219 C 20.585938 25.78125 20.558594 25.867188 20.535156 25.925781 C 20.511719 25.984375 20.488281 26.019531 20.457031 26.046875 C 20.421875 26.074219 20.378906 26.089844 20.328125 26.105469 C 20.316406 26.109375 20.308594 26.113281 20.296875 26.113281 L 20.28125 26.367188 C 20.269531 26.519531 20.214844 26.648438 20.109375 26.757812 L 19.746094 27.144531 C 19.625 27.269531 19.476562 27.335938 19.300781 27.335938 L 19.125 27.335938 C 18.953125 27.335938 18.804688 27.269531 18.683594 27.144531 L 18.3125 26.757812 C 18.207031 26.648438 18.152344 26.519531 18.140625 26.367188 L 18.125 26.105469 L 18.121094 26.101562 C 18.070312 26.085938 18.023438 26.070312 17.992188 26.042969 C 17.960938 26.015625 17.9375 25.980469 17.914062 25.910156 C 17.886719 25.84375 17.859375 25.738281 17.839844 25.644531 C 17.820312 25.550781 17.808594 25.46875 17.804688 25.398438 C 17.796875 25.324219 17.796875 25.265625 17.816406 25.21875 C 17.832031 25.167969 17.878906 25.132812 17.910156 25.121094 C 17.941406 25.113281 17.957031 25.117188 17.972656 25.113281 C 17.976562 25.105469 17.953125 25.074219 17.949219 25.066406 Z M 18.191406 25.019531 C 18.207031 25.066406 18.210938 25.121094 18.199219 25.167969 C 18.179688 25.25 18.117188 25.316406 18.03125 25.339844 C 18.035156 25.355469 18.035156 25.371094 18.035156 25.378906 C 18.039062 25.453125 18.050781 25.523438 18.066406 25.59375 C 18.085938 25.671875 18.105469 25.757812 18.132812 25.832031 C 18.136719 25.839844 18.140625 25.855469 18.144531 25.863281 C 18.15625 25.871094 18.175781 25.875 18.1875 25.878906 L 18.191406 25.878906 C 18.285156 25.910156 18.351562 25.988281 18.355469 26.089844 L 18.375 26.351562 C 18.378906 26.449219 18.414062 26.527344 18.484375 26.597656 L 18.851562 26.984375 C 18.929688 27.0625 19.015625 27.101562 19.125 27.101562 L 19.300781 27.101562 C 19.410156 27.101562 19.5 27.0625 19.574219 26.984375 L 19.941406 26.597656 C 20.007812 26.527344 20.039062 26.449219 20.046875 26.351562 L 20.0625 26.097656 C 20.070312 25.996094 20.140625 25.914062 20.242188 25.886719 C 20.261719 25.882812 20.285156 25.875 20.304688 25.867188 C 20.308594 25.855469 20.316406 25.84375 20.320312 25.835938 C 20.34375 25.773438 20.363281 25.707031 20.378906 25.644531 C 20.398438 25.574219 20.40625 25.503906 20.414062 25.429688 C 20.414062 25.410156 20.417969 25.371094 20.417969 25.339844 C 20.34375 25.324219 20.28125 25.277344 20.25 25.203125 C 20.246094 25.191406 20.238281 25.179688 20.238281 25.167969 C 20.238281 25.167969 20.007812 24.714844 20.070312 24.523438 C 20.132812 24.332031 19.914062 24.148438 19.914062 24.148438 C 19.914062 24.148438 19.261719 24.378906 18.816406 24.335938 C 18.371094 24.292969 18.191406 25.019531 18.191406 25.019531 Z M 22.003906 23.992188 L 24.003906 23.992188 C 24.089844 23.992188 24.15625 24.0625 24.15625 24.148438 C 24.15625 24.234375 24.089844 24.300781 24.003906 24.300781 L 22.003906 24.300781 C 21.917969 24.300781 21.847656 24.234375 21.847656 24.148438 C 21.847656 24.0625 21.917969 23.992188 22.003906 23.992188 Z M 24.15625 24.148438 Z M 21.847656 24.148438 Z M 22.003906 24.628906 L 23.570312 24.628906 C 23.65625 24.628906 23.726562 24.699219 23.726562 24.785156 C 23.726562 24.871094 23.65625 24.941406 23.570312 24.941406 L 22.003906 24.941406 C 21.917969 24.941406 21.847656 24.871094 21.847656 24.785156 C 21.847656 24.699219 21.917969 24.628906 22.003906 24.628906 Z M 23.726562 24.785156 Z M 21.847656 24.785156 Z M 17.292969 27.546875 C 17.292969 27.367188 17.5 27.390625 17.496094 27.484375 L 17.496094 29.089844 C 17.640625 29.132812 17.75 29.269531 17.75 29.429688 C 17.75 29.625 17.589844 29.785156 17.394531 29.785156 C 17.199219 29.785156 17.039062 29.625 17.039062 29.429688 C 17.039062 29.269531 17.144531 29.132812 17.292969 29.089844 Z M 17.292969 27.546875 "/></g></g></svg>