<svg xmlns="http://www.w3.org/2000/svg" xmlns:xlink="http://www.w3.org/1999/xlink" width="50" zoomAndPan="magnify" viewBox="0 0 37.5 37.499999" height="50" preserveAspectRatio="xMidYMid meet" version="1.2"><defs><clipPath id="c60acc3760"><path d="M 25 6.839844 L 28 6.839844 L 28 13 L 25 13 Z M 25 6.839844 "/></clipPath><clipPath id="ce90806335"><path d="M 8 6.839844 L 29 6.839844 L 29 16 L 8 16 Z M 8 6.839844 "/></clipPath><clipPath id="ef2ce9532e"><path d="M 6.820312 29 L 30.503906 29 L 30.503906 30.523438 L 6.820312 30.523438 Z M 6.820312 29 "/></clipPath></defs><g id="04b032f3f7"><path style=" stroke:none;fill-rule:nonzero;fill:#ffffff;fill-opacity:1;" d="M 20.734375 18.230469 L 23.023438 18.230469 L 23.023438 20.714844 L 20.734375 20.714844 Z M 20.734375 18.230469 "/><path style=" stroke:none;fill-rule:nonzero;fill:#ffffff;fill-opacity:1;" d="M 24.015625 21.710938 L 26.203125 21.710938 L 26.203125 24.246094 L 24.015625 24.246094 Z M 24.015625 21.710938 "/><path style=" stroke:none;fill-rule:nonzero;fill:#ffffff;fill-opacity:1;" d="M 20.734375 21.710938 L 23.023438 21.710938 L 23.023438 24.246094 L 20.734375 24.246094 Z M 20.734375 21.710938 "/><path style=" stroke:none;fill-rule:nonzero;fill:#ffffff;fill-opacity:1;" d="M 18.546875 15.667969 L 20.035156 14.183594 C 20.347656 13.871094 20.347656 13.363281 20.035156 13.046875 C 19.71875 12.734375 19.214844 12.734375 18.898438 13.050781 C 18.707031 13.242188 18.390625 13.242188 18.195312 13.050781 C 17.882812 12.738281 17.375 12.734375 17.0625 13.050781 C 16.75 13.363281 16.75 13.871094 17.0625 14.183594 Z M 18.546875 15.667969 "/><g clip-rule="nonzero" clip-path="url(#c60acc3760)"><path style=" stroke:none;fill-rule:nonzero;fill:#ffffff;fill-opacity:1;" d="M 27.195312 6.851562 L 25.207031 6.851562 L 25.207031 10.691406 C 25.6875 11.046875 26.300781 11.503906 27.195312 12.167969 Z M 27.195312 6.851562 "/></g><path style=" stroke:none;fill-rule:nonzero;fill:#ffffff;fill-opacity:1;" d="M 24.015625 18.230469 L 26.203125 18.230469 L 26.203125 20.714844 L 24.015625 20.714844 Z M 24.015625 18.230469 "/><g clip-rule="nonzero" clip-path="url(#ce90806335)"><path style=" stroke:none;fill-rule:nonzero;fill:#ffffff;fill-opacity:1;" d="M 18.84375 8.4375 C 19.246094 8.738281 26.3125 13.996094 28.738281 15.800781 L 28.738281 14.554688 C 28.039062 14.035156 27.449219 13.59375 26.960938 13.234375 C 26.726562 13.058594 18.628906 7.035156 18.546875 6.972656 L 8.359375 14.554688 L 8.359375 15.800781 L 18.25 8.4375 C 18.429688 8.308594 18.667969 8.308594 18.84375 8.4375 Z M 18.84375 8.4375 "/></g><path style=" stroke:none;fill-rule:nonzero;fill:#ffffff;fill-opacity:1;" d="M 15.765625 28.171875 L 15.765625 19.226562 L 10.792969 19.226562 L 10.792969 28.171875 Z M 14.273438 23.25 C 14.546875 23.25 14.769531 23.472656 14.769531 23.75 C 14.769531 24.023438 14.546875 24.246094 14.273438 24.246094 C 14 24.246094 13.777344 24.023438 13.777344 23.75 C 13.777344 23.472656 14 23.25 14.273438 23.25 Z M 14.273438 23.25 "/><path style=" stroke:none;fill-rule:nonzero;fill:#ffffff;fill-opacity:1;" d="M 9.800781 18.730469 C 9.800781 18.453125 10.023438 18.230469 10.296875 18.230469 L 16.261719 18.230469 C 16.535156 18.230469 16.757812 18.453125 16.757812 18.730469 L 16.757812 28.171875 L 28.738281 28.171875 L 28.738281 17.039062 C 27.386719 16.035156 20.152344 10.652344 18.546875 9.457031 L 8.359375 17.039062 L 8.359375 28.171875 L 9.800781 28.171875 Z M 27.195312 17.734375 L 27.195312 24.742188 C 27.195312 25.015625 26.972656 25.238281 26.699219 25.238281 L 20.238281 25.238281 C 19.964844 25.238281 19.742188 25.015625 19.742188 24.742188 L 19.742188 17.734375 C 19.742188 17.460938 19.964844 17.238281 20.238281 17.238281 L 26.699219 17.238281 C 26.972656 17.238281 27.195312 17.460938 27.195312 17.734375 Z M 16.359375 12.347656 C 16.953125 11.753906 17.859375 11.664062 18.546875 12.070312 C 19.226562 11.667969 20.132812 11.742188 20.738281 12.347656 C 21.4375 13.046875 21.4375 14.183594 20.738281 14.886719 L 18.898438 16.722656 C 18.707031 16.917969 18.390625 16.917969 18.195312 16.722656 L 16.359375 14.886719 C 15.660156 14.183594 15.660156 13.046875 16.359375 12.347656 Z M 16.359375 12.347656 "/><g clip-rule="nonzero" clip-path="url(#ef2ce9532e)"><path style=" stroke:none;fill-rule:nonzero;fill:#ffffff;fill-opacity:1;" d="M 6.820312 29.167969 L 30.179688 29.167969 L 30.179688 30.160156 L 6.820312 30.160156 Z M 6.820312 29.167969 "/></g></g></svg>