<svg xmlns="http://www.w3.org/2000/svg" xmlns:xlink="http://www.w3.org/1999/xlink" width="50" zoomAndPan="magnify" viewBox="0 0 37.5 37.499999" height="50" preserveAspectRatio="xMidYMid meet" version="1.2"><defs><clipPath id="fa363d7204"><path d="M 4 11.304688 L 13 11.304688 L 13 16 L 4 16 Z M 4 11.304688 "/></clipPath><clipPath id="79605361df"><path d="M 3.179688 22 L 15 22 L 15 26.847656 L 3.179688 26.847656 Z M 3.179688 22 "/></clipPath><clipPath id="88952d19ec"><path d="M 15.019531 15 L 17 15 L 17 21 L 15.019531 21 Z M 15.019531 15 "/></clipPath><clipPath id="143f4d1582"><path d="M 32 17 L 33.523438 17 L 33.523438 21 L 32 21 Z M 32 17 "/></clipPath><clipPath id="dc5811df77"><path d="M 15.019531 20 L 33.523438 20 L 33.523438 26.847656 L 15.019531 26.847656 Z M 15.019531 20 "/></clipPath><clipPath id="1024c04344"><path d="M 25 11.304688 L 33 11.304688 L 33 14 L 25 14 Z M 25 11.304688 "/></clipPath><clipPath id="e7530d01ef"><path d="M 19 11.304688 L 24 11.304688 L 24 18 L 19 18 Z M 19 11.304688 "/></clipPath><clipPath id="bed2470477"><path d="M 11.234375 6.304688 L 14.933594 6.304688 L 14.933594 9.265625 L 11.234375 9.265625 Z M 11.234375 6.304688 "/></clipPath><clipPath id="ca52844ba3"><path d="M 16.574219 6.304688 L 20.273438 6.304688 L 20.273438 9.265625 L 16.574219 9.265625 Z M 16.574219 6.304688 "/></clipPath><clipPath id="ddb0540c2c"><path d="M 22 6.304688 L 25.613281 6.304688 L 25.613281 9.265625 L 22 9.265625 Z M 22 6.304688 "/></clipPath></defs><g id="a3c1368818"><g clip-rule="nonzero" clip-path="url(#fa363d7204)"><path style=" stroke:none;fill-rule:nonzero;fill:#ffffff;fill-opacity:1;" d="M 5.148438 13.3125 C 5.289062 13.636719 5.417969 13.964844 5.546875 14.296875 C 5.648438 14.542969 5.753906 14.789062 5.839844 15.042969 C 5.953125 14.960938 6.0625 14.871094 6.175781 14.792969 C 6.574219 14.511719 7.003906 14.308594 7.472656 14.183594 C 7.957031 14.042969 8.453125 13.984375 8.957031 14.011719 C 9.726562 14.019531 10.445312 14.210938 11.117188 14.585938 C 11.351562 14.714844 11.578125 14.863281 11.789062 15.03125 C 11.859375 14.832031 11.929688 14.628906 12.019531 14.433594 C 12.082031 14.25 12.152344 14.070312 12.230469 13.894531 C 12.265625 13.816406 12.28125 13.730469 12.320312 13.65625 C 12.378906 13.519531 12.441406 13.382812 12.488281 13.238281 C 12.527344 13.117188 12.605469 13.007812 12.632812 12.878906 C 12.652344 12.761719 12.613281 12.671875 12.519531 12.601562 C 12.355469 12.476562 12.179688 12.367188 12 12.269531 C 11.074219 11.734375 10.074219 11.445312 9.003906 11.410156 C 8.4375 11.386719 7.878906 11.445312 7.328125 11.589844 C 6.605469 11.769531 5.929688 12.058594 5.296875 12.453125 C 5.203125 12.511719 5.117188 12.578125 5.035156 12.652344 C 4.980469 12.707031 4.960938 12.773438 4.976562 12.847656 C 5.023438 13.007812 5.078125 13.160156 5.148438 13.3125 Z M 8.082031 12.558594 C 8.222656 12.539062 8.371094 12.558594 8.515625 12.554688 C 8.515625 12.40625 8.523438 12.257812 8.539062 12.109375 C 8.597656 11.996094 8.691406 11.945312 8.820312 11.953125 C 8.949219 11.964844 9.035156 12.027344 9.078125 12.148438 C 9.089844 12.28125 9.09375 12.417969 9.085938 12.550781 C 9.230469 12.558594 9.375 12.542969 9.519531 12.554688 C 9.609375 12.59375 9.664062 12.65625 9.695312 12.746094 C 9.722656 12.835938 9.714844 12.921875 9.667969 13.003906 C 9.628906 13.074219 9.574219 13.113281 9.496094 13.121094 C 9.359375 13.128906 9.222656 13.117188 9.085938 13.121094 C 9.082031 13.253906 9.089844 13.382812 9.082031 13.515625 C 9.058594 13.652344 8.976562 13.71875 8.835938 13.714844 C 8.671875 13.738281 8.570312 13.667969 8.527344 13.507812 C 8.519531 13.378906 8.53125 13.253906 8.53125 13.125 C 8.382812 13.117188 8.234375 13.136719 8.085938 13.117188 C 7.96875 13.0625 7.90625 12.972656 7.90625 12.839844 C 7.902344 12.707031 7.960938 12.613281 8.082031 12.558594 Z M 8.082031 12.558594 "/></g><path style=" stroke:none;fill-rule:nonzero;fill:#ffffff;fill-opacity:1;" d="M 11.707031 20.9375 C 11.816406 20.9375 11.90625 20.894531 11.972656 20.808594 C 12.054688 20.671875 12.125 20.527344 12.175781 20.375 C 12.257812 20.15625 12.328125 19.933594 12.402344 19.710938 C 12.566406 19.089844 12.628906 18.457031 12.589844 17.816406 C 12.566406 17.367188 12.484375 16.929688 12.339844 16.503906 C 12.253906 16.234375 12.148438 15.972656 12.019531 15.71875 C 11.976562 15.785156 11.910156 15.824219 11.828125 15.832031 C 11.699219 15.851562 11.609375 15.738281 11.523438 15.664062 C 10.988281 15.160156 10.359375 14.832031 9.640625 14.683594 C 8.804688 14.515625 7.996094 14.597656 7.214844 14.925781 C 6.96875 15.027344 6.738281 15.15625 6.519531 15.304688 C 6.339844 15.441406 6.167969 15.585938 6 15.738281 C 5.925781 15.820312 5.832031 15.847656 5.722656 15.820312 C 5.664062 15.8125 5.628906 15.757812 5.59375 15.714844 C 5.476562 15.945312 5.375 16.183594 5.292969 16.433594 C 5.195312 16.722656 5.125 17.023438 5.089844 17.328125 C 5.011719 17.90625 5.011719 18.480469 5.089844 19.054688 C 5.167969 19.589844 5.320312 20.105469 5.546875 20.59375 C 5.609375 20.746094 5.707031 20.925781 5.890625 20.933594 C 6.28125 20.9375 6.667969 20.9375 7.058594 20.9375 C 7.0625 21.207031 7.054688 21.476562 7.027344 21.742188 C 7.011719 21.828125 7 21.914062 6.992188 22.003906 C 6.988281 22.152344 7.058594 22.25 7.203125 22.289062 C 7.292969 22.3125 7.371094 22.292969 7.4375 22.230469 C 7.527344 22.140625 7.582031 22.035156 7.597656 21.90625 C 7.648438 21.613281 7.667969 21.3125 7.652344 21.011719 C 7.921875 21.195312 8.21875 21.300781 8.539062 21.328125 C 8.804688 21.355469 9.066406 21.34375 9.324219 21.285156 C 9.546875 21.226562 9.753906 21.140625 9.953125 21.03125 C 9.941406 21.347656 9.96875 21.664062 10.027344 21.976562 C 10.050781 22.125 10.132812 22.230469 10.273438 22.292969 C 10.425781 22.332031 10.535156 22.277344 10.597656 22.132812 C 10.640625 22.027344 10.648438 21.917969 10.617188 21.804688 C 10.578125 21.515625 10.566406 21.226562 10.578125 20.9375 C 10.953125 20.9375 11.332031 20.941406 11.707031 20.9375 Z M 10.535156 19.808594 C 10.445312 19.917969 10.347656 20.023438 10.246094 20.125 C 10.070312 20.292969 9.867188 20.429688 9.644531 20.527344 C 9.421875 20.628906 9.1875 20.683594 8.941406 20.699219 C 8.695312 20.714844 8.457031 20.6875 8.222656 20.617188 C 7.988281 20.546875 7.773438 20.4375 7.574219 20.289062 C 7.292969 20.074219 7.058594 19.8125 6.871094 19.507812 C 6.566406 18.996094 6.421875 18.441406 6.433594 17.84375 C 6.710938 17.753906 6.988281 17.664062 7.253906 17.550781 C 7.703125 17.351562 8.113281 17.097656 8.488281 16.785156 C 8.65625 16.652344 8.808594 16.503906 8.949219 16.347656 C 9.078125 16.183594 9.214844 16.027344 9.339844 15.863281 C 9.417969 15.761719 9.472656 15.648438 9.558594 15.554688 C 9.628906 15.863281 9.75 16.144531 9.921875 16.410156 C 10.25 16.949219 10.671875 17.40625 11.1875 17.777344 C 11.191406 18.074219 11.160156 18.367188 11.09375 18.660156 C 10.992188 19.082031 10.804688 19.464844 10.535156 19.808594 Z M 10.535156 19.808594 "/><g clip-rule="nonzero" clip-path="url(#79605361df)"><path style=" stroke:none;fill-rule:nonzero;fill:#ffffff;fill-opacity:1;" d="M 14.441406 25.652344 C 14.429688 25.183594 14.332031 24.738281 14.136719 24.316406 C 13.910156 23.804688 13.582031 23.367188 13.148438 23.011719 C 12.71875 22.652344 12.230469 22.40625 11.683594 22.277344 C 11.550781 22.222656 11.425781 22.242188 11.316406 22.335938 C 11.089844 22.574219 10.859375 22.808594 10.644531 23.054688 C 10.089844 23.652344 9.539062 24.253906 8.988281 24.851562 C 8.933594 24.902344 8.898438 24.988281 8.8125 25 C 8.78125 24.996094 8.75 24.984375 8.722656 24.964844 C 8.035156 24.210938 7.34375 23.46875 6.65625 22.71875 C 6.527344 22.589844 6.414062 22.445312 6.277344 22.320312 C 6.175781 22.246094 6.066406 22.230469 5.945312 22.273438 C 5.625 22.351562 5.320312 22.464844 5.027344 22.617188 C 4.21875 23.058594 3.667969 23.714844 3.371094 24.585938 C 3.269531 24.875 3.207031 25.175781 3.183594 25.484375 C 3.171875 25.789062 3.175781 26.09375 3.175781 26.402344 C 3.1875 26.613281 3.296875 26.726562 3.503906 26.75 C 7.035156 26.753906 10.5625 26.746094 14.09375 26.753906 C 14.183594 26.746094 14.265625 26.710938 14.328125 26.644531 C 14.394531 26.578125 14.429688 26.496094 14.4375 26.40625 C 14.445312 26.152344 14.4375 25.902344 14.441406 25.652344 Z M 12.261719 25.117188 C 12.25 25.25 12.179688 25.324219 12.050781 25.347656 C 11.878906 25.363281 11.703125 25.34375 11.53125 25.351562 C 11.53125 25.492188 11.539062 25.632812 11.53125 25.773438 C 11.527344 25.90625 11.464844 25.988281 11.335938 26.019531 C 11.261719 26.046875 11.1875 26.046875 11.113281 26.011719 C 11.039062 25.976562 10.992188 25.921875 10.964844 25.84375 C 10.949219 25.6875 10.957031 25.527344 10.960938 25.367188 C 10.785156 25.332031 10.597656 25.375 10.421875 25.34375 C 10.257812 25.28125 10.199219 25.164062 10.234375 24.992188 C 10.246094 24.839844 10.332031 24.757812 10.488281 24.75 C 10.640625 24.75 10.792969 24.75 10.949219 24.753906 C 10.933594 24.566406 10.945312 24.382812 10.984375 24.203125 C 11.027344 24.121094 11.097656 24.074219 11.1875 24.058594 C 11.277344 24.042969 11.359375 24.066406 11.429688 24.128906 C 11.503906 24.195312 11.539062 24.28125 11.53125 24.382812 C 11.53125 24.507812 11.53125 24.628906 11.53125 24.753906 C 11.695312 24.753906 11.859375 24.746094 12.023438 24.753906 C 12.105469 24.769531 12.171875 24.8125 12.21875 24.886719 C 12.265625 24.957031 12.28125 25.035156 12.261719 25.117188 Z M 12.261719 25.117188 "/></g><path style=" stroke:none;fill-rule:nonzero;fill:#ffffff;fill-opacity:1;" d="M 16.875 17.15625 L 20.929688 20.179688 C 20.980469 20.210938 21.035156 20.226562 21.089844 20.226562 L 31.710938 20.226562 L 31.710938 18.5 C 31.710938 18.339844 31.582031 18.210938 31.425781 18.210938 L 22.015625 18.210938 L 18.25 15.382812 C 18.125 15.300781 17.960938 15.328125 17.867188 15.441406 L 16.8125 16.734375 C 16.761719 16.800781 16.738281 16.882812 16.753906 16.960938 C 16.761719 17.039062 16.808594 17.113281 16.875 17.15625 Z M 16.875 17.15625 "/><g clip-rule="nonzero" clip-path="url(#88952d19ec)"><path style=" stroke:none;fill-rule:nonzero;fill:#ffffff;fill-opacity:1;" d="M 16.171875 15.910156 C 16.171875 15.59375 15.914062 15.335938 15.597656 15.335938 C 15.28125 15.335938 15.019531 15.59375 15.019531 15.910156 L 15.019531 20.226562 L 16.171875 20.226562 Z M 16.171875 15.910156 "/></g><g clip-rule="nonzero" clip-path="url(#143f4d1582)"><path style=" stroke:none;fill-rule:nonzero;fill:#ffffff;fill-opacity:1;" d="M 32.863281 17.640625 C 32.542969 17.640625 32.289062 17.898438 32.289062 18.214844 L 32.289062 20.226562 L 33.4375 20.226562 L 33.4375 18.214844 C 33.4375 17.894531 33.179688 17.640625 32.863281 17.640625 Z M 32.863281 17.640625 "/></g><g clip-rule="nonzero" clip-path="url(#dc5811df77)"><path style=" stroke:none;fill-rule:nonzero;fill:#ffffff;fill-opacity:1;" d="M 15.019531 21.667969 C 15.019531 21.824219 15.148438 21.953125 15.308594 21.953125 L 15.59375 21.953125 L 15.59375 25.167969 C 15.261719 25.285156 15.019531 25.609375 15.019531 25.984375 C 15.019531 26.457031 15.40625 26.847656 15.886719 26.847656 C 16.363281 26.847656 16.75 26.460938 16.75 25.984375 C 16.75 25.609375 16.507812 25.289062 16.175781 25.167969 L 16.175781 24.832031 L 32.289062 24.832031 L 32.289062 25.167969 C 31.953125 25.285156 31.714844 25.609375 31.714844 25.984375 C 31.714844 26.457031 32.101562 26.847656 32.578125 26.847656 C 33.054688 26.847656 33.441406 26.460938 33.441406 25.984375 C 33.441406 25.609375 33.199219 25.289062 32.867188 25.167969 L 32.867188 21.953125 L 33.152344 21.953125 C 33.3125 21.953125 33.441406 21.824219 33.441406 21.667969 L 33.441406 20.800781 L 15.019531 20.800781 Z M 16.171875 21.953125 L 32.285156 21.953125 L 32.285156 24.253906 L 16.171875 24.253906 Z M 16.171875 21.953125 "/></g><g clip-rule="nonzero" clip-path="url(#1024c04344)"><path style=" stroke:none;fill-rule:nonzero;fill:#ffffff;fill-opacity:1;" d="M 27.765625 13.117188 C 27.832031 13.050781 27.925781 13.023438 28.019531 13.035156 C 28.109375 13.050781 28.1875 13.109375 28.230469 13.191406 L 28.496094 13.722656 L 28.851562 12.652344 C 28.886719 12.542969 28.984375 12.464844 29.101562 12.457031 C 29.21875 12.449219 29.328125 12.511719 29.378906 12.617188 L 29.777344 13.410156 L 29.785156 13.40625 C 29.835938 13.351562 29.910156 13.320312 29.988281 13.320312 L 32.003906 13.320312 L 32.003906 11.59375 C 32.003906 11.4375 31.875 11.308594 31.714844 11.308594 L 25.953125 11.308594 C 25.796875 11.308594 25.667969 11.4375 25.667969 11.59375 L 25.667969 13.320312 L 27.5625 13.320312 Z M 27.765625 13.117188 "/></g><path style=" stroke:none;fill-rule:nonzero;fill:#ffffff;fill-opacity:1;" d="M 25.957031 15.910156 L 28.257812 15.910156 L 28.257812 17.640625 L 29.410156 17.640625 L 29.410156 15.910156 L 31.710938 15.910156 C 31.871094 15.910156 32 15.78125 32 15.625 L 32 13.894531 L 30.105469 13.894531 L 29.898438 14.101562 C 29.832031 14.167969 29.742188 14.195312 29.648438 14.183594 C 29.558594 14.167969 29.480469 14.109375 29.4375 14.027344 L 29.171875 13.496094 L 28.816406 14.566406 C 28.78125 14.675781 28.679688 14.753906 28.566406 14.761719 C 28.558594 14.761719 28.550781 14.761719 28.542969 14.761719 C 28.4375 14.761719 28.335938 14.699219 28.285156 14.601562 L 27.890625 13.808594 L 27.882812 13.8125 C 27.828125 13.867188 27.757812 13.898438 27.679688 13.898438 L 25.667969 13.898438 L 25.667969 15.625 C 25.667969 15.78125 25.796875 15.910156 25.957031 15.910156 Z M 25.957031 15.910156 "/><g clip-rule="nonzero" clip-path="url(#e7530d01ef)"><path style=" stroke:none;fill-rule:nonzero;fill:#ffffff;fill-opacity:1;" d="M 20.199219 12.171875 L 22.214844 12.171875 L 22.214844 12.746094 C 21.738281 12.746094 21.351562 13.132812 21.351562 13.609375 L 21.351562 15.046875 C 21.351562 15.523438 21.738281 15.910156 22.214844 15.910156 L 22.214844 16.179688 C 22.214844 16.46875 22.359375 16.734375 22.597656 16.898438 L 22.949219 17.128906 C 23.03125 17.183594 23.078125 17.273438 23.078125 17.371094 L 23.078125 17.636719 L 23.652344 17.636719 L 23.652344 17.371094 C 23.652344 17.082031 23.507812 16.8125 23.269531 16.652344 L 22.917969 16.417969 C 22.835938 16.363281 22.789062 16.273438 22.789062 16.179688 L 22.789062 15.910156 C 23.265625 15.910156 23.652344 15.523438 23.652344 15.046875 L 23.652344 13.609375 C 23.652344 13.132812 23.265625 12.746094 22.789062 12.746094 L 22.789062 11.882812 C 22.789062 11.722656 22.660156 11.59375 22.5 11.59375 L 19.914062 11.59375 C 19.753906 11.59375 19.625 11.722656 19.625 11.882812 L 19.625 15.699219 L 20.199219 16.128906 Z M 20.199219 12.171875 "/></g><g clip-rule="nonzero" clip-path="url(#bed2470477)"><path style=" stroke:none;fill-rule:nonzero;fill:#ffffff;fill-opacity:1;" d="M 14.417969 6.578125 C 14.242188 6.402344 14.011719 6.304688 13.765625 6.304688 C 13.519531 6.304688 13.285156 6.402344 13.113281 6.578125 L 13.007812 6.683594 L 12.898438 6.574219 C 12.726562 6.402344 12.492188 6.304688 12.246094 6.304688 C 12 6.304688 11.769531 6.402344 11.59375 6.574219 C 11.234375 6.9375 11.234375 7.523438 11.59375 7.882812 L 12.960938 9.246094 C 12.972656 9.261719 12.988281 9.265625 13.007812 9.265625 C 13.023438 9.265625 13.039062 9.261719 13.050781 9.246094 L 14.417969 7.882812 C 14.777344 7.523438 14.777344 6.9375 14.417969 6.578125 Z M 14.417969 6.578125 "/></g><g clip-rule="nonzero" clip-path="url(#ca52844ba3)"><path style=" stroke:none;fill-rule:nonzero;fill:#ffffff;fill-opacity:1;" d="M 19.757812 6.578125 C 19.582031 6.402344 19.351562 6.304688 19.105469 6.304688 C 18.859375 6.304688 18.625 6.402344 18.453125 6.578125 L 18.347656 6.683594 L 18.242188 6.574219 C 18.066406 6.402344 17.835938 6.304688 17.585938 6.304688 C 17.339844 6.304688 17.109375 6.402344 16.933594 6.574219 C 16.574219 6.9375 16.574219 7.523438 16.933594 7.882812 L 18.300781 9.246094 C 18.3125 9.261719 18.328125 9.265625 18.347656 9.265625 C 18.363281 9.265625 18.378906 9.261719 18.390625 9.246094 L 19.757812 7.882812 C 20.117188 7.523438 20.117188 6.9375 19.757812 6.578125 Z M 19.757812 6.578125 "/></g><g clip-rule="nonzero" clip-path="url(#ddb0540c2c)"><path style=" stroke:none;fill-rule:nonzero;fill:#ffffff;fill-opacity:1;" d="M 25.097656 6.578125 C 24.925781 6.402344 24.691406 6.304688 24.445312 6.304688 C 24.199219 6.304688 23.96875 6.402344 23.792969 6.578125 L 23.6875 6.683594 L 23.582031 6.574219 C 23.40625 6.402344 23.175781 6.304688 22.929688 6.304688 C 22.683594 6.304688 22.449219 6.402344 22.277344 6.574219 C 21.914062 6.9375 21.914062 7.523438 22.277344 7.882812 L 23.640625 9.246094 C 23.652344 9.261719 23.671875 9.265625 23.6875 9.265625 C 23.703125 9.265625 23.71875 9.261719 23.734375 9.246094 L 25.097656 7.882812 C 25.457031 7.523438 25.457031 6.9375 25.097656 6.578125 Z M 25.097656 6.578125 "/></g></g></svg>