<svg xmlns="http://www.w3.org/2000/svg" xmlns:xlink="http://www.w3.org/1999/xlink" width="50" zoomAndPan="magnify" viewBox="0 0 37.5 37.499999" height="50" preserveAspectRatio="xMidYMid meet" version="1.2"><defs><clipPath id="a079dad7d4"><path d="M 6 3.699219 L 31.558594 3.699219 L 31.558594 29 L 6 29 Z M 6 3.699219 "/></clipPath></defs><g id="a897160802"><g clip-rule="nonzero" clip-path="url(#a079dad7d4)"><path style=" stroke:none;fill-rule:evenodd;fill:#ffffff;fill-opacity:1;" d="M 13.351562 3.800781 C 12.738281 3.800781 12.246094 4.292969 12.246094 4.90625 L 12.246094 8.675781 C 12.246094 9.289062 12.738281 9.78125 13.351562 9.78125 C 13.964844 9.78125 14.457031 9.289062 14.457031 8.675781 L 14.457031 7.390625 C 14.964844 7.746094 15.265625 8.332031 15.265625 8.949219 C 15.265625 10.011719 14.410156 10.867188 13.351562 10.867188 C 12.292969 10.867188 11.433594 10.011719 11.4375 8.949219 L 11.4375 5.785156 L 10.082031 5.785156 C 9.328125 5.785156 8.609375 5.976562 8.042969 6.425781 C 7.484375 6.871094 7.125 7.566406 7.050781 8.359375 L 6.648438 14.691406 C 6.960938 14.628906 7.277344 14.605469 7.601562 14.628906 C 7.824219 14.648438 8.046875 14.699219 8.269531 14.785156 L 8.402344 12.265625 L 29.074219 12.265625 L 29.773438 25.871094 C 29.796875 26.308594 29.699219 26.65625 29.511719 26.882812 C 29.324219 27.113281 29.078125 27.253906 28.667969 27.253906 L 16.746094 27.253906 C 17.285156 27.660156 17.640625 28.320312 17.730469 28.910156 L 28.855469 28.910156 C 29.691406 28.910156 30.445312 28.542969 30.921875 27.957031 C 31.398438 27.371094 31.578125 26.601562 31.527344 25.796875 L 30.417969 8.359375 C 30.34375 7.566406 29.988281 6.871094 29.425781 6.425781 C 28.863281 5.976562 28.144531 5.785156 27.390625 5.785156 L 25.226562 5.785156 L 25.226562 4.90625 C 25.226562 4.292969 24.730469 3.800781 24.117188 3.800781 C 23.503906 3.800781 23.015625 4.292969 23.015625 4.90625 L 23.015625 8.675781 C 23.015625 9.289062 23.503906 9.78125 24.117188 9.78125 C 24.730469 9.78125 25.222656 9.289062 25.226562 8.675781 L 25.226562 7.390625 C 25.730469 7.746094 26.035156 8.332031 26.035156 8.949219 C 26.035156 10.011719 25.175781 10.867188 24.117188 10.867188 C 23.0625 10.867188 22.203125 10.007812 22.203125 8.949219 L 22.203125 5.785156 L 14.457031 5.785156 L 14.457031 4.90625 C 14.457031 4.292969 13.964844 3.800781 13.351562 3.800781 Z M 13.351562 3.800781 "/></g><path style=" stroke:none;fill-rule:evenodd;fill:#ffffff;fill-opacity:1;" d="M 11.296875 15.085938 L 14.046875 15.085938 C 14.449219 15.085938 14.773438 15.410156 14.773438 15.8125 L 14.773438 17.957031 C 14.773438 18.359375 14.449219 18.683594 14.046875 18.683594 L 11.296875 18.683594 C 10.894531 18.683594 10.570312 18.359375 10.570312 17.957031 L 10.570312 15.8125 C 10.570312 15.410156 10.894531 15.085938 11.296875 15.085938 Z M 11.296875 15.085938 "/><path style=" stroke:none;fill-rule:evenodd;fill:#ffffff;fill-opacity:1;" d="M 17.359375 15.085938 L 20.109375 15.085938 C 20.511719 15.085938 20.835938 15.410156 20.835938 15.8125 L 20.835938 17.957031 C 20.835938 18.359375 20.511719 18.683594 20.109375 18.683594 L 17.359375 18.683594 C 16.957031 18.683594 16.632812 18.359375 16.632812 17.957031 L 16.632812 15.8125 C 16.632812 15.410156 16.957031 15.085938 17.359375 15.085938 Z M 17.359375 15.085938 "/><path style=" stroke:none;fill-rule:evenodd;fill:#ffffff;fill-opacity:1;" d="M 23.421875 15.085938 L 26.171875 15.085938 C 26.574219 15.085938 26.898438 15.410156 26.898438 15.8125 L 26.898438 17.957031 C 26.898438 18.359375 26.574219 18.683594 26.171875 18.683594 L 23.421875 18.683594 C 23.019531 18.683594 22.695312 18.359375 22.695312 17.957031 L 22.695312 15.8125 C 22.695312 15.410156 23.019531 15.085938 23.421875 15.085938 Z M 23.421875 15.085938 "/><path style=" stroke:none;fill-rule:evenodd;fill:#ffffff;fill-opacity:1;" d="M 11.296875 20.835938 L 14.046875 20.835938 C 14.449219 20.835938 14.773438 21.160156 14.773438 21.5625 L 14.773438 23.707031 C 14.773438 24.109375 14.449219 24.433594 14.046875 24.433594 L 11.296875 24.433594 C 10.894531 24.433594 10.570312 24.109375 10.570312 23.707031 L 10.570312 21.5625 C 10.570312 21.160156 10.894531 20.835938 11.296875 20.835938 Z M 11.296875 20.835938 "/><path style=" stroke:none;fill-rule:evenodd;fill:#ffffff;fill-opacity:1;" d="M 17.359375 20.835938 L 20.109375 20.835938 C 20.511719 20.835938 20.835938 21.160156 20.835938 21.5625 L 20.835938 23.707031 C 20.835938 24.109375 20.511719 24.433594 20.109375 24.433594 L 17.359375 24.433594 C 16.957031 24.433594 16.632812 24.109375 16.632812 23.707031 L 16.632812 21.5625 C 16.632812 21.160156 16.957031 20.835938 17.359375 20.835938 Z M 17.359375 20.835938 "/><path style=" stroke:none;fill-rule:evenodd;fill:#ffffff;fill-opacity:1;" d="M 27.28125 20.578125 L 24.800781 23.671875 C 24.691406 23.808594 24.472656 23.796875 24.351562 23.671875 L 23.664062 22.785156 C 23.304688 22.324219 23.582031 21.875 23.960938 22.160156 L 24.574219 22.628906 L 26.285156 20.859375 C 26.246094 20.851562 26.207031 20.84375 26.167969 20.84375 L 23.421875 20.84375 C 23.019531 20.84375 22.695312 21.167969 22.695312 21.566406 L 22.695312 23.707031 C 22.695312 24.113281 23.019531 24.433594 23.421875 24.433594 L 26.167969 24.433594 C 26.570312 24.433594 26.894531 24.109375 26.894531 23.707031 L 26.894531 22.242188 L 27.621094 21.09375 C 27.890625 20.667969 27.511719 20.289062 27.28125 20.578125 Z M 27.28125 20.578125 "/><path style=" stroke:none;fill-rule:nonzero;fill:#ffffff;fill-opacity:1;" d="M 5.679688 16.144531 C 5.515625 16.246094 5.359375 16.363281 5.214844 16.492188 C 2.695312 18.714844 3.8125 23.984375 5.621094 26.769531 L 5.738281 26.949219 C 7.542969 29.730469 11.902344 32.902344 14.957031 31.503906 C 15.132812 31.425781 15.300781 31.328125 15.464844 31.222656 C 16.601562 30.464844 17.339844 29.09375 16.300781 28.15625 L 13.3125 25.871094 C 12.992188 25.625 12.546875 25.609375 12.207031 25.828125 L 11.394531 26.355469 C 10.765625 26.628906 9.890625 26.476562 9.515625 25.898438 L 8.121094 23.746094 C 7.742188 23.164062 7.960938 22.308594 8.46875 21.839844 L 9.28125 21.3125 C 9.621094 21.09375 9.785156 20.683594 9.691406 20.285156 L 8.820312 16.628906 C 8.390625 15.296875 6.835938 15.414062 5.679688 16.144531 Z M 5.679688 16.144531 "/></g></svg>