<svg xmlns="http://www.w3.org/2000/svg" xmlns:xlink="http://www.w3.org/1999/xlink" width="50" zoomAndPan="magnify" viewBox="0 0 37.5 37.499999" height="50" preserveAspectRatio="xMidYMid meet" version="1.2"><defs><clipPath id="01b7286e30"><path d="M 23 23 L 33.621094 23 L 33.621094 28.992188 L 23 28.992188 Z M 23 23 "/></clipPath><clipPath id="021eec7543"><path d="M 18.820312 18 L 27 18 L 27 28 L 18.820312 28 Z M 18.820312 18 "/></clipPath><clipPath id="62bf32594b"><path d="M 3.699219 16 L 17.761719 16 L 17.761719 26 L 3.699219 26 Z M 3.699219 16 "/></clipPath><clipPath id="2a8a1d2d08"><path d="M 3.699219 26 L 17.761719 26 L 17.761719 28.785156 L 3.699219 28.785156 Z M 3.699219 26 "/></clipPath><clipPath id="f86471c2a0"><path d="M 5 8.058594 L 16 8.058594 L 16 12 L 5 12 Z M 5 8.058594 "/></clipPath></defs><g id="858740ac6e"><g clip-rule="nonzero" clip-path="url(#01b7286e30)"><path style=" stroke:none;fill-rule:nonzero;fill:#ffffff;fill-opacity:1;" d="M 33.324219 24.945312 C 33.257812 24.671875 33.140625 24.417969 32.972656 24.191406 C 32.804688 23.960938 32.597656 23.773438 32.355469 23.625 C 32.113281 23.480469 31.851562 23.382812 31.570312 23.339844 C 31.289062 23.296875 31.011719 23.3125 30.734375 23.378906 L 28.097656 24.03125 L 25.742188 24.609375 L 25.742188 24.613281 L 25.375 24.703125 C 25.097656 24.769531 24.847656 24.886719 24.617188 25.054688 C 24.390625 25.222656 24.203125 25.429688 24.054688 25.671875 C 23.90625 25.914062 23.8125 26.175781 23.769531 26.457031 C 23.726562 26.738281 23.742188 27.015625 23.808594 27.289062 C 23.9375 27.761719 24.191406 28.148438 24.578125 28.449219 C 24.960938 28.753906 25.398438 28.910156 25.886719 28.917969 C 26.058594 28.917969 26.230469 28.898438 26.398438 28.855469 L 26.765625 28.765625 L 28.28125 28.394531 L 29.121094 28.1875 C 29.125 28.1875 29.128906 28.183594 29.132812 28.183594 L 31.757812 27.535156 C 32.035156 27.464844 32.285156 27.347656 32.515625 27.179688 C 32.742188 27.011719 32.929688 26.808594 33.078125 26.566406 C 33.222656 26.320312 33.320312 26.0625 33.363281 25.78125 C 33.40625 25.5 33.394531 25.222656 33.324219 24.945312 Z M 28.140625 27.828125 L 26.625 28.199219 L 26.257812 28.289062 C 26.078125 28.335938 25.894531 28.347656 25.707031 28.324219 C 25.519531 28.304688 25.34375 28.25 25.175781 28.164062 C 25.011719 28.078125 24.863281 27.964844 24.738281 27.828125 C 24.609375 27.6875 24.511719 27.53125 24.445312 27.355469 C 24.433594 27.332031 24.421875 27.304688 24.414062 27.277344 C 24.398438 27.234375 24.386719 27.195312 24.375 27.152344 C 24.359375 27.078125 24.347656 27.007812 24.34375 26.933594 C 24.324219 26.746094 24.335938 26.5625 24.382812 26.382812 C 24.429688 26.199219 24.507812 26.03125 24.617188 25.878906 C 24.722656 25.726562 24.855469 25.597656 25.007812 25.492188 C 25.164062 25.386719 25.332031 25.3125 25.515625 25.265625 L 25.878906 25.175781 L 25.882812 25.175781 L 28.238281 24.59375 L 28.980469 27.621094 Z M 28.140625 27.828125 "/></g><g clip-rule="nonzero" clip-path="url(#021eec7543)"><path style=" stroke:none;fill-rule:nonzero;fill:#ffffff;fill-opacity:1;" d="M 24.34375 23.625 L 25.710938 21.363281 C 25.855469 21.121094 25.949219 20.859375 25.992188 20.578125 C 26.035156 20.296875 26.023438 20.019531 25.953125 19.746094 C 25.886719 19.46875 25.769531 19.21875 25.601562 18.988281 C 25.433594 18.761719 25.226562 18.574219 24.984375 18.425781 C 24.910156 18.378906 24.832031 18.339844 24.753906 18.308594 C 24.726562 18.296875 24.699219 18.285156 24.671875 18.273438 L 24.644531 18.261719 C 24.410156 18.171875 24.167969 18.125 23.917969 18.121094 C 23.664062 18.117188 23.421875 18.152344 23.183594 18.234375 C 22.945312 18.316406 22.730469 18.433594 22.535156 18.59375 C 22.339844 18.75 22.175781 18.9375 22.046875 19.152344 L 21.851562 19.46875 L 20.597656 21.546875 L 19.1875 23.875 C 19.042969 24.117188 18.945312 24.378906 18.90625 24.660156 C 18.863281 24.941406 18.875 25.21875 18.941406 25.492188 C 19.011719 25.769531 19.128906 26.019531 19.296875 26.25 C 19.464844 26.480469 19.671875 26.667969 19.914062 26.8125 C 20.15625 26.960938 20.417969 27.054688 20.699219 27.097656 C 20.980469 27.140625 21.257812 27.128906 21.53125 27.058594 C 21.808594 26.992188 22.058594 26.875 22.289062 26.707031 C 22.515625 26.539062 22.703125 26.332031 22.851562 26.089844 L 24.257812 23.761719 Z M 21.09375 21.847656 L 22.347656 19.773438 C 22.347656 19.773438 22.351562 19.773438 22.351562 19.769531 L 22.542969 19.449219 C 22.683594 19.214844 22.875 19.03125 23.113281 18.898438 C 23.351562 18.765625 23.605469 18.699219 23.878906 18.699219 C 24.109375 18.699219 24.328125 18.75 24.535156 18.84375 C 24.582031 18.867188 24.632812 18.894531 24.683594 18.921875 C 24.730469 18.949219 24.773438 18.980469 24.8125 19.015625 C 25.109375 19.234375 25.300781 19.523438 25.390625 19.882812 C 25.492188 20.300781 25.433594 20.695312 25.210938 21.0625 L 25.039062 21.339844 L 23.761719 23.460938 Z M 21.09375 21.847656 "/></g><g clip-rule="nonzero" clip-path="url(#62bf32594b)"><path style=" stroke:none;fill-rule:nonzero;fill:#ffffff;fill-opacity:1;" d="M 17.5625 16.71875 L 3.902344 16.71875 C 3.773438 17.101562 3.699219 17.5 3.699219 17.914062 L 3.699219 25.375 L 17.761719 25.375 L 17.761719 17.914062 C 17.761719 17.5 17.691406 17.101562 17.5625 16.71875 Z M 13.976562 22.128906 C 13.976562 22.425781 13.734375 22.667969 13.4375 22.667969 L 12.355469 22.667969 L 12.355469 23.75 C 12.355469 24.050781 12.113281 24.292969 11.8125 24.292969 L 9.648438 24.292969 C 9.351562 24.292969 9.109375 24.050781 9.109375 23.75 L 9.109375 22.667969 L 8.027344 22.667969 C 7.730469 22.667969 7.488281 22.425781 7.488281 22.128906 L 7.488281 19.964844 C 7.488281 19.664062 7.730469 19.421875 8.027344 19.421875 L 9.109375 19.421875 L 9.109375 18.34375 C 9.109375 18.042969 9.351562 17.800781 9.648438 17.800781 L 11.8125 17.800781 C 12.113281 17.800781 12.355469 18.042969 12.355469 18.34375 L 12.355469 19.421875 L 13.4375 19.421875 C 13.734375 19.421875 13.976562 19.664062 13.976562 19.964844 Z M 13.976562 22.128906 "/></g><path style=" stroke:none;fill-rule:nonzero;fill:#ffffff;fill-opacity:1;" d="M 11.273438 19.964844 L 11.273438 18.882812 L 10.191406 18.882812 L 10.191406 19.964844 C 10.191406 20.261719 9.949219 20.503906 9.648438 20.503906 L 8.570312 20.503906 L 8.570312 21.585938 L 9.648438 21.585938 C 9.949219 21.585938 10.191406 21.828125 10.191406 22.128906 L 10.191406 23.210938 L 11.273438 23.210938 L 11.273438 22.128906 C 11.273438 21.828125 11.515625 21.585938 11.8125 21.585938 L 12.894531 21.585938 L 12.894531 20.503906 L 11.8125 20.503906 C 11.515625 20.503906 11.273438 20.261719 11.273438 19.964844 Z M 11.273438 19.964844 "/><g clip-rule="nonzero" clip-path="url(#2a8a1d2d08)"><path style=" stroke:none;fill-rule:nonzero;fill:#ffffff;fill-opacity:1;" d="M 3.699219 26.996094 C 3.699219 27.890625 4.429688 28.617188 5.324219 28.617188 L 16.140625 28.617188 C 17.035156 28.617188 17.761719 27.890625 17.761719 26.996094 L 17.761719 26.453125 L 3.699219 26.453125 Z M 3.699219 26.996094 "/></g><path style=" stroke:none;fill-rule:nonzero;fill:#ffffff;fill-opacity:1;" d="M 16.078125 14.765625 C 15.253906 14.214844 14.714844 13.351562 14.566406 12.390625 L 6.898438 12.390625 C 6.75 13.351562 6.210938 14.214844 5.386719 14.765625 C 5.027344 15.003906 4.722656 15.304688 4.46875 15.636719 L 16.996094 15.636719 C 16.742188 15.304688 16.4375 15.003906 16.078125 14.765625 Z M 16.078125 14.765625 "/><g clip-rule="nonzero" clip-path="url(#f86471c2a0)"><path style=" stroke:none;fill-rule:nonzero;fill:#ffffff;fill-opacity:1;" d="M 6.945312 11.3125 L 8.027344 11.3125 L 8.027344 10.769531 C 8.027344 10.472656 8.269531 10.230469 8.570312 10.230469 C 8.867188 10.230469 9.109375 10.472656 9.109375 10.769531 L 9.109375 11.3125 L 10.191406 11.3125 L 10.191406 10.769531 C 10.191406 10.472656 10.433594 10.230469 10.730469 10.230469 C 11.03125 10.230469 11.273438 10.472656 11.273438 10.769531 L 11.273438 11.3125 L 12.355469 11.3125 L 12.355469 10.769531 C 12.355469 10.472656 12.597656 10.230469 12.894531 10.230469 C 13.195312 10.230469 13.4375 10.472656 13.4375 10.769531 L 13.4375 11.3125 L 14.519531 11.3125 C 15.117188 11.3125 15.601562 10.828125 15.601562 10.230469 L 15.601562 9.148438 C 15.601562 8.550781 15.117188 8.066406 14.519531 8.066406 L 6.945312 8.066406 C 6.347656 8.066406 5.863281 8.550781 5.863281 9.148438 L 5.863281 10.230469 C 5.863281 10.828125 6.347656 11.3125 6.945312 11.3125 Z M 6.945312 11.3125 "/></g></g></svg>